<svg xmlns="http://www.w3.org/2000/svg" xmlns:xlink="http://www.w3.org/1999/xlink" width="48" zoomAndPan="magnify" viewBox="0 0 36 36.000001" height="48" preserveAspectRatio="xMidYMid meet" version="1.0"><defs><clipPath id="fc238a7548"><path d="M 18 16 L 28.214844 16 L 28.214844 21 L 18 21 Z M 18 16 " clip-rule="nonzero"/></clipPath><clipPath id="f77239cc0b"><path d="M 2.675781 17 L 13 17 L 13 21 L 2.675781 21 Z M 2.675781 17 " clip-rule="nonzero"/></clipPath><clipPath id="8775b8eaa6"><path d="M 2.675781 15 L 13 15 L 13 18 L 2.675781 18 Z M 2.675781 15 " clip-rule="nonzero"/></clipPath><clipPath id="3a6049e4c8"><path d="M 17 25 L 23 25 L 23 35.027344 L 17 35.027344 Z M 17 25 " clip-rule="nonzero"/></clipPath></defs><path fill="#eb1d27" d="M 21.355469 21.753906 L 21.796875 20.105469 L 18.21875 16.539062 Z M 21.355469 21.753906 " fill-opacity="1" fill-rule="nonzero"/><g clip-path="url(#fc238a7548)"><path fill="#be1c2d" d="M 18.21875 16.539062 L 21.796875 20.105469 L 28.214844 18.371094 Z M 18.21875 16.539062 " fill-opacity="1" fill-rule="nonzero"/></g><path fill="#3881b7" d="M 11.839844 12.765625 L 13.351562 13.117188 C 13.976562 12.148438 14.800781 11.316406 15.765625 10.6875 L 15.398438 9.183594 C 15.042969 9.390625 14.703125 9.617188 14.378906 9.863281 L 7.824219 5.128906 L 12.574219 11.660156 C 12.304688 12.011719 12.058594 12.378906 11.839844 12.765625 " fill-opacity="1" fill-rule="nonzero"/><path fill="#eb1d27" d="M 20.25 9.355469 C 20.824219 9.355469 21.382812 9.414062 21.921875 9.527344 L 22.726562 8.203125 C 22.335938 8.101562 21.933594 8.019531 21.523438 7.96875 L 20.25 0 L 18.976562 7.96875 C 18.53125 8.023438 18.09375 8.113281 17.671875 8.230469 L 18.488281 9.542969 C 19.058594 9.421875 19.644531 9.355469 20.25 9.355469 " fill-opacity="1" fill-rule="nonzero"/><g clip-path="url(#f77239cc0b)"><path fill="#4fabe4" d="M 10.9375 20.082031 L 12.253906 19.265625 C 12.128906 18.699219 12.0625 18.113281 12.0625 17.511719 L 2.675781 17.511719 L 10.671875 18.78125 C 10.730469 19.226562 10.820312 19.660156 10.9375 20.082031 " fill-opacity="1" fill-rule="nonzero"/></g><g clip-path="url(#8775b8eaa6)"><path fill="#3881b7" d="M 12.234375 15.84375 L 10.910156 15.042969 C 10.804688 15.433594 10.726562 15.832031 10.671875 16.242188 L 2.675781 17.511719 L 12.0625 17.511719 C 12.0625 16.941406 12.121094 16.382812 12.234375 15.84375 " fill-opacity="1" fill-rule="nonzero"/></g><g clip-path="url(#3a6049e4c8)"><path fill="#4fabe4" d="M 20.25 25.667969 C 19.675781 25.667969 19.117188 25.609375 18.578125 25.496094 L 17.769531 26.820312 C 18.164062 26.921875 18.566406 27.003906 18.976562 27.058594 L 20.25 35.023438 L 21.523438 27.058594 C 21.96875 27 22.40625 26.910156 22.828125 26.792969 L 22.007812 25.480469 C 21.441406 25.601562 20.855469 25.667969 20.25 25.667969 " fill-opacity="1" fill-rule="nonzero"/></g><path fill="#4fabe4" d="M 13.398438 21.980469 L 11.890625 22.347656 C 12.097656 22.699219 12.328125 23.039062 12.574219 23.363281 L 7.824219 29.894531 L 14.378906 25.160156 C 14.730469 25.425781 15.101562 25.671875 15.488281 25.890625 L 15.839844 24.386719 C 14.867188 23.765625 14.035156 22.941406 13.398438 21.980469 " fill-opacity="1" fill-rule="nonzero"/><path fill="#3881b7" d="M 12.5 17.511719 L 15.007812 17.511719 C 15.160156 16.136719 15.726562 14.890625 16.578125 13.890625 L 15.890625 11.152344 C 13.847656 12.53125 12.5 14.867188 12.5 17.511719 " fill-opacity="1" fill-rule="nonzero"/><path fill="#eb1d27" d="M 20.199219 9.839844 C 19.707031 9.839844 19.222656 9.886719 18.757812 9.976562 L 19.875 11.773438 C 20.464844 11.605469 21.085938 11.515625 21.730469 11.515625 C 23.957031 11.515625 25.929688 12.589844 27.164062 14.242188 C 25.933594 11.640625 23.277344 9.839844 20.199219 9.839844 " fill-opacity="1" fill-rule="nonzero"/><path fill="#4fabe4" d="M 21.730469 24.996094 C 19.136719 24.996094 16.882812 23.539062 15.746094 21.402344 L 13.859375 21.863281 C 15.25 23.867188 17.570312 25.183594 20.199219 25.183594 C 20.785156 25.183594 21.351562 25.117188 21.902344 24.992188 C 21.84375 24.996094 21.789062 24.996094 21.730469 24.996094 " fill-opacity="1" fill-rule="nonzero"/><path fill="#4fabe4" d="M 15.007812 17.511719 L 12.5 17.511719 C 12.5 18.03125 12.554688 18.539062 12.652344 19.027344 L 15 17.589844 C 15.003906 17.5625 15.007812 17.539062 15.007812 17.511719 " fill-opacity="1" fill-rule="nonzero"/></svg>