<svg xmlns="http://www.w3.org/2000/svg" xmlns:xlink="http://www.w3.org/1999/xlink" width="746" zoomAndPan="magnify" viewBox="0 0 559.5 142.499996" height="190" preserveAspectRatio="xMidYMid meet" version="1.0"><defs><g/><clipPath id="f74f1efcca"><path d="M 62 63 L 101.714844 63 L 101.714844 78 L 62 78 Z M 62 63 " clip-rule="nonzero"/></clipPath><clipPath id="617b93b151"><path d="M 0.730469 67 L 39 67 L 39 78 L 0.730469 78 Z M 0.730469 67 " clip-rule="nonzero"/></clipPath><clipPath id="5a8e0c16e3"><path d="M 0.730469 57 L 39 57 L 39 68 L 0.730469 68 Z M 0.730469 57 " clip-rule="nonzero"/></clipPath><clipPath id="1d5c9c6965"><path d="M 60 98 L 81 98 L 81 136.890625 L 60 136.890625 Z M 60 98 " clip-rule="nonzero"/></clipPath></defs><path fill="#ffffff" d="M 74.589844 84.171875 L 76.335938 77.628906 L 62.183594 63.457031 Z M 74.589844 84.171875 " fill-opacity="1" fill-rule="nonzero"/><g clip-path="url(#f74f1efcca)"><path fill="#ffffff" d="M 62.183594 63.457031 L 76.335938 77.628906 L 101.710938 70.734375 Z M 62.183594 63.457031 " fill-opacity="1" fill-rule="nonzero"/></g><path fill="#ffffff" d="M 36.96875 48.464844 L 42.941406 49.859375 C 45.40625 46.007812 48.667969 42.710938 52.488281 40.203125 L 51.027344 34.234375 C 49.625 35.050781 48.28125 35.953125 47 36.9375 L 21.085938 18.125 L 39.875 44.070312 C 38.808594 45.464844 37.835938 46.933594 36.96875 48.464844 " fill-opacity="1" fill-rule="nonzero"/><path fill="#ffffff" d="M 70.214844 34.910156 C 72.480469 34.910156 74.695312 35.148438 76.832031 35.589844 L 80.011719 30.339844 C 78.464844 29.929688 76.875 29.609375 75.253906 29.398438 L 70.214844 -2.25 L 65.175781 29.398438 C 63.417969 29.628906 61.695312 29.984375 60.019531 30.445312 L 63.257812 35.664062 C 65.5 35.171875 67.824219 34.910156 70.214844 34.910156 " fill-opacity="1" fill-rule="nonzero"/><g clip-path="url(#617b93b151)"><path fill="#ffffff" d="M 33.390625 77.527344 L 38.601562 74.28125 C 38.109375 72.039062 37.847656 69.707031 37.847656 67.316406 L 0.734375 67.316406 L 32.34375 72.359375 C 32.574219 74.125 32.925781 75.847656 33.390625 77.527344 " fill-opacity="1" fill-rule="nonzero"/></g><g clip-path="url(#5a8e0c16e3)"><path fill="#ffffff" d="M 38.527344 60.691406 L 33.28125 57.503906 C 32.871094 59.058594 32.554688 60.648438 32.34375 62.273438 L 0.734375 67.316406 L 37.847656 67.316406 C 37.847656 65.046875 38.082031 62.832031 38.527344 60.691406 " fill-opacity="1" fill-rule="nonzero"/></g><g clip-path="url(#1d5c9c6965)"><path fill="#ffffff" d="M 70.214844 99.722656 C 67.945312 99.722656 65.734375 99.484375 63.597656 99.042969 L 60.417969 104.292969 C 61.96875 104.703125 63.554688 105.019531 65.175781 105.234375 L 70.214844 136.882812 L 75.253906 105.234375 C 77.011719 105.003906 78.734375 104.648438 80.410156 104.183594 L 77.171875 98.96875 C 74.929688 99.460938 72.601562 99.722656 70.214844 99.722656 " fill-opacity="1" fill-rule="nonzero"/></g><path fill="#ffffff" d="M 43.132812 85.066406 L 37.171875 86.523438 C 37.988281 87.929688 38.890625 89.277344 39.875 90.5625 L 21.085938 116.507812 L 47 97.695312 C 48.390625 98.761719 49.855469 99.734375 51.386719 100.605469 L 52.78125 94.621094 C 48.929688 92.152344 45.640625 88.890625 43.132812 85.066406 " fill-opacity="1" fill-rule="nonzero"/><path fill="#ffffff" d="M 39.578125 67.316406 L 49.492188 67.316406 C 50.09375 61.859375 52.332031 56.894531 55.699219 52.929688 L 52.984375 42.058594 C 44.898438 47.535156 39.578125 56.804688 39.578125 67.316406 " fill-opacity="1" fill-rule="nonzero"/><path fill="#ffffff" d="M 70.015625 36.84375 C 68.066406 36.84375 66.160156 37.03125 64.308594 37.378906 L 68.734375 44.523438 C 71.066406 43.859375 73.527344 43.5 76.074219 43.5 C 84.871094 43.5 92.675781 47.753906 97.550781 54.320312 C 92.679688 43.992188 82.183594 36.84375 70.015625 36.84375 " fill-opacity="1" fill-rule="nonzero"/><path fill="#ffffff" d="M 76.074219 97.046875 C 65.808594 97.046875 56.898438 91.261719 52.417969 82.765625 L 44.953125 84.609375 C 50.445312 92.570312 59.621094 97.789062 70.015625 97.789062 C 72.328125 97.789062 74.578125 97.527344 76.742188 97.039062 C 76.519531 97.046875 76.296875 97.046875 76.074219 97.046875 " fill-opacity="1" fill-rule="nonzero"/><path fill="#ffffff" d="M 49.492188 67.316406 L 39.578125 67.316406 C 39.578125 69.378906 39.785156 71.394531 40.175781 73.34375 L 49.464844 67.625 C 49.472656 67.519531 49.484375 67.417969 49.492188 67.316406 " fill-opacity="1" fill-rule="nonzero"/><g fill="#ffffff" fill-opacity="1"><g transform="translate(122.674804, 92.383613)"><g><path d="M 3.464844 0 L 14.519531 0 L 14.519531 -1.15625 C 10.230469 -2.476562 8.25 -5.363281 8.25 -15.425781 L 8.25 -49.660156 L 28.957031 -15.675781 L 30.851562 -15.675781 L 50.652344 -50.402344 L 50.652344 -10.476562 C 50.652344 -4.539062 50.074219 -2.0625 47.351562 -1.15625 L 47.351562 0 L 62.695312 0 L 62.695312 -1.15625 C 59.972656 -2.0625 59.394531 -4.539062 59.394531 -10.476562 L 59.394531 -42.320312 C 59.394531 -52.382812 61.210938 -55.269531 65.003906 -56.589844 L 65.003906 -57.746094 L 53.292969 -57.746094 L 33.90625 -23.921875 L 13.527344 -57.746094 L 1.15625 -57.746094 L 1.15625 -56.589844 C 4.949219 -55.269531 6.765625 -52.382812 6.765625 -42.320312 L 6.765625 -10.476562 C 6.765625 -4.539062 6.1875 -2.0625 3.464844 -1.15625 Z M 3.464844 0 "/></g></g></g><g fill="#ffffff" fill-opacity="1"><g transform="translate(191.548758, 92.383613)"><g><path d="M 3.878906 0 L 19.222656 0 L 19.222656 -1.15625 C 16.5 -2.0625 15.921875 -4.539062 15.921875 -10.476562 L 15.921875 -47.269531 C 15.921875 -53.207031 16.5 -55.683594 19.222656 -56.589844 L 19.222656 -57.746094 L 3.878906 -57.746094 L 3.878906 -56.589844 C 6.597656 -55.683594 7.175781 -53.207031 7.175781 -47.269531 L 7.175781 -10.476562 C 7.175781 -4.539062 6.597656 -2.0625 3.878906 -1.15625 Z M 3.878906 0 "/></g></g></g><g fill="#ffffff" fill-opacity="1"><g transform="translate(214.644216, 92.383613)"><g><path d="M 23.59375 0.824219 C 33.082031 0.824219 43.472656 -5.445312 43.472656 -16.746094 C 43.472656 -26.644531 33.492188 -30.359375 25.078125 -33.574219 C 18.480469 -36.214844 10.148438 -39.183594 10.148438 -46.527344 C 10.148438 -53.042969 15.34375 -56.921875 21.945312 -56.921875 C 29.945312 -56.921875 36.957031 -52.300781 40.339844 -43.804688 L 41.246094 -44.132812 L 40.917969 -54.859375 C 36.628906 -57.003906 31.183594 -58.324219 25.078125 -58.324219 C 12.125 -58.324219 3.878906 -51.972656 3.878906 -41.742188 C 3.878906 -32.171875 10.972656 -29.367188 19.46875 -25.820312 C 26.066406 -23.179688 36.710938 -19.386719 36.710938 -11.300781 C 36.710938 -4.539062 31.429688 -0.90625 25.738281 -0.90625 C 14.765625 -0.90625 7.425781 -8.167969 3.960938 -17.570312 L 2.886719 -17.40625 L 3.21875 -5.03125 C 7.425781 -1.898438 15.097656 0.824219 23.59375 0.824219 Z M 23.59375 0.824219 "/></g></g></g><g fill="#ffffff" fill-opacity="1"><g transform="translate(260.257742, 92.383613)"><g><path d="M 23.59375 0.824219 C 33.082031 0.824219 43.472656 -5.445312 43.472656 -16.746094 C 43.472656 -26.644531 33.492188 -30.359375 25.078125 -33.574219 C 18.480469 -36.214844 10.148438 -39.183594 10.148438 -46.527344 C 10.148438 -53.042969 15.34375 -56.921875 21.945312 -56.921875 C 29.945312 -56.921875 36.957031 -52.300781 40.339844 -43.804688 L 41.246094 -44.132812 L 40.917969 -54.859375 C 36.628906 -57.003906 31.183594 -58.324219 25.078125 -58.324219 C 12.125 -58.324219 3.878906 -51.972656 3.878906 -41.742188 C 3.878906 -32.171875 10.972656 -29.367188 19.46875 -25.820312 C 26.066406 -23.179688 36.710938 -19.386719 36.710938 -11.300781 C 36.710938 -4.539062 31.429688 -0.90625 25.738281 -0.90625 C 14.765625 -0.90625 7.425781 -8.167969 3.960938 -17.570312 L 2.886719 -17.40625 L 3.21875 -5.03125 C 7.425781 -1.898438 15.097656 0.824219 23.59375 0.824219 Z M 23.59375 0.824219 "/></g></g></g><g fill="#ffffff" fill-opacity="1"><g transform="translate(305.871267, 92.383613)"><g><path d="M 3.878906 0 L 19.222656 0 L 19.222656 -1.15625 C 16.5 -2.0625 15.921875 -4.539062 15.921875 -10.476562 L 15.921875 -47.269531 C 15.921875 -53.207031 16.5 -55.683594 19.222656 -56.589844 L 19.222656 -57.746094 L 3.878906 -57.746094 L 3.878906 -56.589844 C 6.597656 -55.683594 7.175781 -53.207031 7.175781 -47.269531 L 7.175781 -10.476562 C 7.175781 -4.539062 6.597656 -2.0625 3.878906 -1.15625 Z M 3.878906 0 "/></g></g></g><g fill="#ffffff" fill-opacity="1"><g transform="translate(328.966737, 92.383613)"><g><path d="M 33.988281 0.824219 C 47.847656 0.824219 63.4375 -8.496094 63.4375 -28.625 C 63.4375 -48.835938 47.929688 -58.40625 33.988281 -58.40625 C 16.5 -58.40625 4.453125 -45.453125 4.453125 -29.121094 C 4.453125 -8.414062 19.964844 0.824219 33.988281 0.824219 Z M 13.035156 -34.152344 C 12.125 -47.515625 18.480469 -56.261719 29.699219 -56.261719 C 43.96875 -56.261719 53.867188 -39.679688 55.105469 -22.109375 C 55.847656 -11.21875 51.3125 -1.730469 38.691406 -1.730469 C 24.664062 -1.730469 14.1875 -17.652344 13.035156 -34.152344 Z M 13.035156 -34.152344 "/></g></g></g><g fill="#ffffff" fill-opacity="1"><g transform="translate(396.603441, 92.383613)"><g><path d="M 47.351562 0.660156 L 48.425781 0.660156 L 48.425781 -47.269531 C 48.425781 -53.207031 49 -55.683594 51.722656 -56.589844 L 51.722656 -57.746094 L 40.585938 -57.746094 L 40.585938 -56.589844 C 44.878906 -55.269531 46.855469 -52.382812 46.855469 -42.320312 L 46.855469 -14.355469 L 12.210938 -57.746094 L 2.886719 -57.746094 L 2.886719 -56.589844 C 6.433594 -55.683594 7.175781 -53.207031 7.175781 -47.269531 L 7.175781 -10.476562 C 7.175781 -4.539062 6.597656 -2.0625 3.878906 -1.15625 L 3.878906 0 L 14.929688 0 L 14.929688 -1.15625 C 10.640625 -2.476562 8.660156 -5.363281 8.660156 -15.425781 L 8.660156 -48.175781 Z M 47.351562 0.660156 "/></g></g></g><g fill="#ffffff" fill-opacity="1"><g transform="translate(451.207015, 92.383613)"><g/></g></g><g fill="#ffffff" fill-opacity="1"><g transform="translate(467.703771, 92.383613)"><g/></g></g><g fill="#ffffff" fill-opacity="1"><g transform="translate(484.191144, 92.383613)"><g><path d="M 3.878906 0 L 19.222656 0 L 19.222656 -1.15625 C 16.5 -2.0625 15.921875 -4.539062 15.921875 -10.476562 L 15.921875 -47.269531 C 15.921875 -53.207031 16.5 -55.683594 19.222656 -56.589844 L 19.222656 -57.746094 L 3.878906 -57.746094 L 3.878906 -56.589844 C 6.597656 -55.683594 7.175781 -53.207031 7.175781 -47.269531 L 7.175781 -10.476562 C 7.175781 -4.539062 6.597656 -2.0625 3.878906 -1.15625 Z M 3.878906 0 "/></g></g></g><g fill="#ffffff" fill-opacity="1"><g transform="translate(507.286602, 92.383613)"><g><path d="M 15.507812 0 L 30.933594 0 L 30.933594 -1.15625 C 28.214844 -2.0625 27.636719 -4.539062 27.636719 -10.476562 L 27.636719 -56.261719 L 30.027344 -56.261719 C 37.371094 -56.261719 41.082031 -54.199219 44.132812 -47.597656 L 45.125 -47.765625 L 44.628906 -57.746094 L 1.648438 -57.746094 L 1.15625 -47.765625 L 2.144531 -47.597656 C 5.195312 -54.199219 8.910156 -56.261719 16.25 -56.261719 L 18.808594 -56.261719 L 18.808594 -10.476562 C 18.808594 -4.539062 18.230469 -2.0625 15.507812 -1.15625 Z M 15.507812 0 "/></g></g></g></svg>