<svg xmlns="http://www.w3.org/2000/svg" xmlns:xlink="http://www.w3.org/1999/xlink" width="746" zoomAndPan="magnify" viewBox="0 0 559.5 142.499996" height="190" preserveAspectRatio="xMidYMid meet" version="1.0"><defs><g/><clipPath id="adb5c47d46"><path d="M 0.730469 0 L 558.273438 0 L 558.273438 142 L 0.730469 142 Z M 0.730469 0 " clip-rule="nonzero"/></clipPath><clipPath id="b465fde4fa"><path d="M 209 67 L 249.226562 67 L 249.226562 82 L 209 82 Z M 209 67 " clip-rule="nonzero"/></clipPath><clipPath id="7caed2e829"><path d="M 207 1.675781 L 228 1.675781 L 228 40 L 207 40 Z M 207 1.675781 " clip-rule="nonzero"/></clipPath><clipPath id="318b5b173c"><path d="M 148.238281 71 L 187 71 L 187 82 L 148.238281 82 Z M 148.238281 71 " clip-rule="nonzero"/></clipPath><clipPath id="087d08d62f"><path d="M 148.238281 61 L 187 61 L 187 72 L 148.238281 72 Z M 148.238281 61 " clip-rule="nonzero"/></clipPath><clipPath id="d269421062"><path d="M 207 102 L 228 102 L 228 140.8125 L 207 140.8125 Z M 207 102 " clip-rule="nonzero"/></clipPath></defs><g clip-path="url(#adb5c47d46)"><path fill="#ffffff" d="M 0.730469 0 L 558.769531 0 L 558.769531 148.859375 L 0.730469 148.859375 Z M 0.730469 0 " fill-opacity="1" fill-rule="nonzero"/><path fill="#ffffff" d="M 0.730469 0 L 558.769531 0 L 558.769531 142.128906 L 0.730469 142.128906 Z M 0.730469 0 " fill-opacity="1" fill-rule="nonzero"/><path fill="#f1f1f1" d="M 0.730469 0 L 558.769531 0 L 558.769531 142.128906 L 0.730469 142.128906 Z M 0.730469 0 " fill-opacity="1" fill-rule="nonzero"/></g><path fill="#ffffff" d="M 222.097656 88.09375 L 223.847656 81.546875 L 209.691406 67.375 Z M 222.097656 88.09375 " fill-opacity="1" fill-rule="nonzero"/><g clip-path="url(#b465fde4fa)"><path fill="#ffffff" d="M 209.691406 67.375 L 223.847656 81.546875 L 249.21875 74.65625 Z M 209.691406 67.375 " fill-opacity="1" fill-rule="nonzero"/></g><path fill="#ffffff" d="M 184.476562 52.382812 L 190.453125 53.78125 C 192.917969 49.925781 196.175781 46.628906 200 44.121094 L 198.539062 38.15625 C 197.136719 38.96875 195.789062 39.875 194.507812 40.859375 L 168.59375 22.046875 L 187.382812 47.992188 C 186.316406 49.382812 185.347656 50.851562 184.476562 52.382812 " fill-opacity="1" fill-rule="nonzero"/><g clip-path="url(#7caed2e829)"><path fill="#ffffff" d="M 217.726562 38.832031 C 219.992188 38.832031 222.207031 39.066406 224.339844 39.507812 L 227.523438 34.257812 C 225.972656 33.847656 224.382812 33.53125 222.761719 33.316406 L 217.726562 1.671875 L 212.6875 33.316406 C 210.925781 33.550781 209.203125 33.902344 207.527344 34.367188 L 210.765625 39.585938 C 213.007812 39.089844 215.335938 38.832031 217.726562 38.832031 " fill-opacity="1" fill-rule="nonzero"/></g><g clip-path="url(#318b5b173c)"><path fill="#ffffff" d="M 180.898438 81.445312 L 186.109375 78.203125 C 185.621094 75.957031 185.359375 73.625 185.359375 71.234375 L 148.242188 71.234375 L 179.851562 76.28125 C 180.085938 78.042969 180.4375 79.765625 180.898438 81.445312 " fill-opacity="1" fill-rule="nonzero"/></g><g clip-path="url(#087d08d62f)"><path fill="#ffffff" d="M 186.035156 64.609375 L 180.792969 61.425781 C 180.382812 62.976562 180.066406 64.566406 179.851562 66.191406 L 148.242188 71.234375 L 185.359375 71.234375 C 185.359375 68.964844 185.59375 66.75 186.035156 64.609375 " fill-opacity="1" fill-rule="nonzero"/></g><g clip-path="url(#d269421062)"><path fill="#ffffff" d="M 217.726562 103.640625 C 215.457031 103.640625 213.246094 103.40625 211.109375 102.960938 L 207.925781 108.210938 C 209.476562 108.621094 211.066406 108.941406 212.6875 109.152344 L 217.726562 140.800781 L 222.761719 109.152344 C 224.523438 108.921875 226.246094 108.570312 227.921875 108.105469 L 224.683594 102.886719 C 222.441406 103.378906 220.113281 103.640625 217.726562 103.640625 " fill-opacity="1" fill-rule="nonzero"/></g><path fill="#ffffff" d="M 190.644531 88.984375 L 184.683594 90.445312 C 185.5 91.847656 186.402344 93.195312 187.382812 94.480469 L 168.59375 120.425781 L 194.507812 101.613281 C 195.898438 102.679688 197.363281 103.652344 198.898438 104.523438 L 200.289062 98.542969 C 196.441406 96.074219 193.148438 92.808594 190.644531 88.984375 " fill-opacity="1" fill-rule="nonzero"/><path fill="#ffffff" d="M 187.089844 71.234375 L 197.003906 71.234375 C 197.601562 65.78125 199.839844 60.816406 203.210938 56.851562 L 200.496094 45.976562 C 192.40625 51.453125 187.089844 60.722656 187.089844 71.234375 " fill-opacity="1" fill-rule="nonzero"/><path fill="#ffffff" d="M 217.523438 40.761719 C 215.574219 40.761719 213.667969 40.949219 211.820312 41.300781 L 216.242188 48.441406 C 218.574219 47.777344 221.039062 47.417969 223.582031 47.417969 C 232.382812 47.417969 240.1875 51.675781 245.058594 58.242188 C 240.1875 47.910156 229.691406 40.761719 217.523438 40.761719 " fill-opacity="1" fill-rule="nonzero"/><path fill="#ffffff" d="M 223.582031 100.96875 C 213.320312 100.96875 204.410156 95.179688 199.925781 86.6875 L 192.464844 88.527344 C 197.953125 96.488281 207.128906 101.707031 217.523438 101.707031 C 219.835938 101.707031 222.085938 101.449219 224.25 100.960938 C 224.03125 100.964844 223.804688 100.96875 223.582031 100.96875 " fill-opacity="1" fill-rule="nonzero"/><path fill="#ffffff" d="M 197.003906 71.234375 L 187.089844 71.234375 C 187.089844 73.300781 187.296875 75.316406 187.6875 77.265625 L 196.972656 71.542969 C 196.984375 71.441406 196.992188 71.339844 197.003906 71.234375 " fill-opacity="1" fill-rule="nonzero"/><g fill="#ffffff" fill-opacity="1"><g transform="translate(254.8569, 54.825799)"><g><path d="M 1.40625 0 L 5.890625 0 L 5.890625 -0.46875 C 4.148438 -1.003906 3.347656 -2.175781 3.347656 -6.257812 L 3.347656 -20.144531 L 11.746094 -6.359375 L 12.515625 -6.359375 L 20.546875 -20.445312 L 20.546875 -4.25 C 20.546875 -1.839844 20.3125 -0.835938 19.207031 -0.46875 L 19.207031 0 L 25.433594 0 L 25.433594 -0.46875 C 24.328125 -0.835938 24.09375 -1.839844 24.09375 -4.25 L 24.09375 -17.167969 C 24.09375 -21.25 24.832031 -22.421875 26.371094 -22.957031 L 26.371094 -23.425781 L 21.617188 -23.425781 L 13.753906 -9.703125 L 5.488281 -23.425781 L 0.46875 -23.425781 L 0.46875 -22.957031 C 2.007812 -22.421875 2.742188 -21.25 2.742188 -17.167969 L 2.742188 -4.25 C 2.742188 -1.839844 2.511719 -0.835938 1.40625 -0.46875 Z M 1.40625 0 "/></g></g></g><g fill="#ffffff" fill-opacity="1"><g transform="translate(282.790708, 54.825799)"><g><path d="M 1.574219 0 L 7.796875 0 L 7.796875 -0.46875 C 6.691406 -0.835938 6.457031 -1.839844 6.457031 -4.25 L 6.457031 -19.175781 C 6.457031 -21.585938 6.691406 -22.589844 7.796875 -22.957031 L 7.796875 -23.425781 L 1.574219 -23.425781 L 1.574219 -22.957031 C 2.675781 -22.589844 2.910156 -21.585938 2.910156 -19.175781 L 2.910156 -4.25 C 2.910156 -1.839844 2.675781 -0.835938 1.574219 -0.46875 Z M 1.574219 0 "/></g></g></g><g fill="#ffffff" fill-opacity="1"><g transform="translate(292.157732, 54.825799)"><g><path d="M 9.570312 0.335938 C 13.417969 0.335938 17.636719 -2.207031 17.636719 -6.792969 C 17.636719 -10.808594 13.585938 -12.316406 10.171875 -13.621094 C 7.496094 -14.691406 4.117188 -15.894531 4.117188 -18.875 C 4.117188 -21.519531 6.222656 -23.089844 8.902344 -23.089844 C 12.148438 -23.089844 14.992188 -21.214844 16.363281 -17.769531 L 16.730469 -17.902344 L 16.597656 -22.253906 C 14.859375 -23.125 12.648438 -23.660156 10.171875 -23.660156 C 4.917969 -23.660156 1.574219 -21.082031 1.574219 -16.933594 C 1.574219 -13.050781 4.449219 -11.914062 7.898438 -10.472656 C 10.574219 -9.402344 14.890625 -7.863281 14.890625 -4.585938 C 14.890625 -1.839844 12.75 -0.367188 10.441406 -0.367188 C 5.988281 -0.367188 3.011719 -3.3125 1.605469 -7.128906 L 1.171875 -7.0625 L 1.304688 -2.042969 C 3.011719 -0.769531 6.125 0.335938 9.570312 0.335938 Z M 9.570312 0.335938 "/></g></g></g><g fill="#ffffff" fill-opacity="1"><g transform="translate(310.657609, 54.825799)"><g><path d="M 9.570312 0.335938 C 13.417969 0.335938 17.636719 -2.207031 17.636719 -6.792969 C 17.636719 -10.808594 13.585938 -12.316406 10.171875 -13.621094 C 7.496094 -14.691406 4.117188 -15.894531 4.117188 -18.875 C 4.117188 -21.519531 6.222656 -23.089844 8.902344 -23.089844 C 12.148438 -23.089844 14.992188 -21.214844 16.363281 -17.769531 L 16.730469 -17.902344 L 16.597656 -22.253906 C 14.859375 -23.125 12.648438 -23.660156 10.171875 -23.660156 C 4.917969 -23.660156 1.574219 -21.082031 1.574219 -16.933594 C 1.574219 -13.050781 4.449219 -11.914062 7.898438 -10.472656 C 10.574219 -9.402344 14.890625 -7.863281 14.890625 -4.585938 C 14.890625 -1.839844 12.75 -0.367188 10.441406 -0.367188 C 5.988281 -0.367188 3.011719 -3.3125 1.605469 -7.128906 L 1.171875 -7.0625 L 1.304688 -2.042969 C 3.011719 -0.769531 6.125 0.335938 9.570312 0.335938 Z M 9.570312 0.335938 "/></g></g></g><g fill="#ffffff" fill-opacity="1"><g transform="translate(329.157487, 54.825799)"><g><path d="M 1.574219 0 L 7.796875 0 L 7.796875 -0.46875 C 6.691406 -0.835938 6.457031 -1.839844 6.457031 -4.25 L 6.457031 -19.175781 C 6.457031 -21.585938 6.691406 -22.589844 7.796875 -22.957031 L 7.796875 -23.425781 L 1.574219 -23.425781 L 1.574219 -22.957031 C 2.675781 -22.589844 2.910156 -21.585938 2.910156 -19.175781 L 2.910156 -4.25 C 2.910156 -1.839844 2.675781 -0.835938 1.574219 -0.46875 Z M 1.574219 0 "/></g></g></g><g fill="#ffffff" fill-opacity="1"><g transform="translate(338.524511, 54.825799)"><g><path d="M 13.789062 0.335938 C 19.410156 0.335938 25.734375 -3.445312 25.734375 -11.613281 C 25.734375 -19.8125 19.441406 -23.691406 13.789062 -23.691406 C 6.691406 -23.691406 1.808594 -18.4375 1.808594 -11.8125 C 1.808594 -3.414062 8.097656 0.335938 13.789062 0.335938 Z M 5.289062 -13.855469 C 4.917969 -19.277344 7.496094 -22.824219 12.046875 -22.824219 C 17.835938 -22.824219 21.851562 -16.097656 22.355469 -8.96875 C 22.65625 -4.550781 20.816406 -0.703125 15.695312 -0.703125 C 10.007812 -0.703125 5.757812 -7.160156 5.289062 -13.855469 Z M 5.289062 -13.855469 "/></g></g></g><g fill="#ffffff" fill-opacity="1"><g transform="translate(365.956509, 54.825799)"><g><path d="M 19.207031 0.269531 L 19.644531 0.269531 L 19.644531 -19.175781 C 19.644531 -21.585938 19.878906 -22.589844 20.980469 -22.957031 L 20.980469 -23.425781 L 16.464844 -23.425781 L 16.464844 -22.957031 C 18.203125 -22.421875 19.007812 -21.25 19.007812 -17.167969 L 19.007812 -5.824219 L 4.953125 -23.425781 L 1.171875 -23.425781 L 1.171875 -22.957031 C 2.609375 -22.589844 2.910156 -21.585938 2.910156 -19.175781 L 2.910156 -4.25 C 2.910156 -1.839844 2.675781 -0.835938 1.574219 -0.46875 L 1.574219 0 L 6.058594 0 L 6.058594 -0.46875 C 4.316406 -1.003906 3.515625 -2.175781 3.515625 -6.257812 L 3.515625 -19.542969 Z M 19.207031 0.269531 "/></g></g></g><g fill="#ffffff" fill-opacity="1"><g transform="translate(388.102834, 54.825799)"><g/></g></g><g fill="#ffffff" fill-opacity="1"><g transform="translate(394.793562, 54.825799)"><g><path d="M 1.574219 0 L 7.796875 0 L 7.796875 -0.46875 C 6.691406 -0.835938 6.457031 -1.839844 6.457031 -4.25 L 6.457031 -19.175781 C 6.457031 -21.585938 6.691406 -22.589844 7.796875 -22.957031 L 7.796875 -23.425781 L 1.574219 -23.425781 L 1.574219 -22.957031 C 2.675781 -22.589844 2.910156 -21.585938 2.910156 -19.175781 L 2.910156 -4.25 C 2.910156 -1.839844 2.675781 -0.835938 1.574219 -0.46875 Z M 1.574219 0 "/></g></g></g><g fill="#ffffff" fill-opacity="1"><g transform="translate(404.160586, 54.825799)"><g><path d="M 6.292969 0 L 12.550781 0 L 12.550781 -0.46875 C 11.445312 -0.835938 11.210938 -1.839844 11.210938 -4.25 L 11.210938 -22.824219 L 12.179688 -22.824219 C 15.160156 -22.824219 16.664062 -21.984375 17.902344 -19.308594 L 18.304688 -19.375 L 18.105469 -23.425781 L 0.667969 -23.425781 L 0.46875 -19.375 L 0.871094 -19.308594 C 2.109375 -21.984375 3.613281 -22.824219 6.59375 -22.824219 L 7.628906 -22.824219 L 7.628906 -4.25 C 7.628906 -1.839844 7.394531 -0.835938 6.292969 -0.46875 Z M 6.292969 0 "/></g></g></g><g fill="#ffffff" fill-opacity="1"><g transform="translate(259.515051, 82.080289)"><g><path d="M 4 -10.171875 L 0.0625 -10.171875 L 0.0625 -11.203125 L 9.125 -11.203125 L 9.125 -10.171875 L 5.1875 -10.171875 L 5.1875 0 L 4 0 Z M 4 -10.171875 "/></g></g></g><g fill="#ffffff" fill-opacity="1"><g transform="translate(272.857282, 82.080289)"><g><path d="M 9.75 -1.03125 L 9.75 0 L 1.828125 0 L 1.828125 -11.203125 L 9.5 -11.203125 L 9.5 -10.171875 L 3.015625 -10.171875 L 3.015625 -6.1875 L 8.796875 -6.1875 L 8.796875 -5.1875 L 3.015625 -5.1875 L 3.015625 -1.03125 Z M 9.75 -1.03125 "/></g></g></g><g fill="#ffffff" fill-opacity="1"><g transform="translate(287.718779, 82.080289)"><g><path d="M 6.6875 0.09375 C 5.582031 0.09375 4.582031 -0.148438 3.6875 -0.640625 C 2.800781 -1.128906 2.101562 -1.804688 1.59375 -2.671875 C 1.082031 -3.546875 0.828125 -4.519531 0.828125 -5.59375 C 0.828125 -6.675781 1.082031 -7.648438 1.59375 -8.515625 C 2.101562 -9.390625 2.804688 -10.070312 3.703125 -10.5625 C 4.597656 -11.050781 5.597656 -11.296875 6.703125 -11.296875 C 7.535156 -11.296875 8.300781 -11.15625 9 -10.875 C 9.707031 -10.601562 10.304688 -10.195312 10.796875 -9.65625 L 10.046875 -8.90625 C 9.171875 -9.789062 8.066406 -10.234375 6.734375 -10.234375 C 5.847656 -10.234375 5.039062 -10.03125 4.3125 -9.625 C 3.59375 -9.226562 3.023438 -8.675781 2.609375 -7.96875 C 2.203125 -7.257812 2 -6.46875 2 -5.59375 C 2 -4.71875 2.203125 -3.925781 2.609375 -3.21875 C 3.023438 -2.519531 3.59375 -1.96875 4.3125 -1.5625 C 5.039062 -1.15625 5.847656 -0.953125 6.734375 -0.953125 C 8.078125 -0.953125 9.179688 -1.398438 10.046875 -2.296875 L 10.796875 -1.546875 C 10.304688 -1.015625 9.707031 -0.609375 9 -0.328125 C 8.289062 -0.046875 7.519531 0.09375 6.6875 0.09375 Z M 6.6875 0.09375 "/></g></g></g><g fill="#ffffff" fill-opacity="1"><g transform="translate(303.379895, 82.080289)"><g><path d="M 11.1875 -11.203125 L 11.1875 0 L 10.015625 0 L 10.015625 -5.171875 L 3.015625 -5.171875 L 3.015625 0 L 1.828125 0 L 1.828125 -11.203125 L 3.015625 -11.203125 L 3.015625 -6.203125 L 10.015625 -6.203125 L 10.015625 -11.203125 Z M 11.1875 -11.203125 "/></g></g></g><g fill="#ffffff" fill-opacity="1"><g transform="translate(320.5443, 82.080289)"><g><path d="M 11.1875 -11.203125 L 11.1875 0 L 10.203125 0 L 3.015625 -9.09375 L 3.015625 0 L 1.828125 0 L 1.828125 -11.203125 L 2.796875 -11.203125 L 10.015625 -2.109375 L 10.015625 -11.203125 Z M 11.1875 -11.203125 "/></g></g></g><g fill="#ffffff" fill-opacity="1"><g transform="translate(337.708704, 82.080289)"><g><path d="M 6.71875 0.09375 C 5.613281 0.09375 4.609375 -0.148438 3.703125 -0.640625 C 2.804688 -1.140625 2.101562 -1.820312 1.59375 -2.6875 C 1.082031 -3.550781 0.828125 -4.519531 0.828125 -5.59375 C 0.828125 -6.675781 1.082031 -7.648438 1.59375 -8.515625 C 2.101562 -9.378906 2.804688 -10.054688 3.703125 -10.546875 C 4.609375 -11.046875 5.613281 -11.296875 6.71875 -11.296875 C 7.832031 -11.296875 8.832031 -11.050781 9.71875 -10.5625 C 10.613281 -10.070312 11.316406 -9.390625 11.828125 -8.515625 C 12.335938 -7.648438 12.59375 -6.675781 12.59375 -5.59375 C 12.59375 -4.519531 12.335938 -3.546875 11.828125 -2.671875 C 11.316406 -1.804688 10.613281 -1.128906 9.71875 -0.640625 C 8.832031 -0.148438 7.832031 0.09375 6.71875 0.09375 Z M 6.71875 -0.953125 C 7.601562 -0.953125 8.398438 -1.148438 9.109375 -1.546875 C 9.828125 -1.953125 10.390625 -2.507812 10.796875 -3.21875 C 11.203125 -3.925781 11.40625 -4.71875 11.40625 -5.59375 C 11.40625 -6.46875 11.203125 -7.257812 10.796875 -7.96875 C 10.390625 -8.6875 9.828125 -9.242188 9.109375 -9.640625 C 8.398438 -10.035156 7.601562 -10.234375 6.71875 -10.234375 C 5.832031 -10.234375 5.03125 -10.035156 4.3125 -9.640625 C 3.59375 -9.242188 3.023438 -8.6875 2.609375 -7.96875 C 2.203125 -7.257812 2 -6.46875 2 -5.59375 C 2 -4.71875 2.203125 -3.925781 2.609375 -3.21875 C 3.023438 -2.507812 3.59375 -1.953125 4.3125 -1.546875 C 5.03125 -1.148438 5.832031 -0.953125 6.71875 -0.953125 Z M 6.71875 -0.953125 "/></g></g></g><g fill="#ffffff" fill-opacity="1"><g transform="translate(355.288915, 82.080289)"><g><path d="M 1.828125 -11.203125 L 3.015625 -11.203125 L 3.015625 -1.03125 L 9.28125 -1.03125 L 9.28125 0 L 1.828125 0 Z M 1.828125 -11.203125 "/></g></g></g><g fill="#ffffff" fill-opacity="1"><g transform="translate(368.871029, 82.080289)"><g><path d="M 6.71875 0.09375 C 5.613281 0.09375 4.609375 -0.148438 3.703125 -0.640625 C 2.804688 -1.140625 2.101562 -1.820312 1.59375 -2.6875 C 1.082031 -3.550781 0.828125 -4.519531 0.828125 -5.59375 C 0.828125 -6.675781 1.082031 -7.648438 1.59375 -8.515625 C 2.101562 -9.378906 2.804688 -10.054688 3.703125 -10.546875 C 4.609375 -11.046875 5.613281 -11.296875 6.71875 -11.296875 C 7.832031 -11.296875 8.832031 -11.050781 9.71875 -10.5625 C 10.613281 -10.070312 11.316406 -9.390625 11.828125 -8.515625 C 12.335938 -7.648438 12.59375 -6.675781 12.59375 -5.59375 C 12.59375 -4.519531 12.335938 -3.546875 11.828125 -2.671875 C 11.316406 -1.804688 10.613281 -1.128906 9.71875 -0.640625 C 8.832031 -0.148438 7.832031 0.09375 6.71875 0.09375 Z M 6.71875 -0.953125 C 7.601562 -0.953125 8.398438 -1.148438 9.109375 -1.546875 C 9.828125 -1.953125 10.390625 -2.507812 10.796875 -3.21875 C 11.203125 -3.925781 11.40625 -4.71875 11.40625 -5.59375 C 11.40625 -6.46875 11.203125 -7.257812 10.796875 -7.96875 C 10.390625 -8.6875 9.828125 -9.242188 9.109375 -9.640625 C 8.398438 -10.035156 7.601562 -10.234375 6.71875 -10.234375 C 5.832031 -10.234375 5.03125 -10.035156 4.3125 -9.640625 C 3.59375 -9.242188 3.023438 -8.6875 2.609375 -7.96875 C 2.203125 -7.257812 2 -6.46875 2 -5.59375 C 2 -4.71875 2.203125 -3.925781 2.609375 -3.21875 C 3.023438 -2.507812 3.59375 -1.953125 4.3125 -1.546875 C 5.03125 -1.148438 5.832031 -0.953125 6.71875 -0.953125 Z M 6.71875 -0.953125 "/></g></g></g><g fill="#ffffff" fill-opacity="1"><g transform="translate(386.45124, 82.080289)"><g><path d="M 9.71875 -5.59375 L 10.84375 -5.59375 L 10.84375 -1.328125 C 10.320312 -0.867188 9.703125 -0.515625 8.984375 -0.265625 C 8.273438 -0.0234375 7.523438 0.09375 6.734375 0.09375 C 5.617188 0.09375 4.613281 -0.148438 3.71875 -0.640625 C 2.820312 -1.128906 2.113281 -1.804688 1.59375 -2.671875 C 1.082031 -3.546875 0.828125 -4.519531 0.828125 -5.59375 C 0.828125 -6.675781 1.082031 -7.648438 1.59375 -8.515625 C 2.113281 -9.390625 2.820312 -10.070312 3.71875 -10.5625 C 4.613281 -11.050781 5.625 -11.296875 6.75 -11.296875 C 7.601562 -11.296875 8.382812 -11.160156 9.09375 -10.890625 C 9.8125 -10.617188 10.414062 -10.21875 10.90625 -9.6875 L 10.171875 -8.921875 C 9.285156 -9.796875 8.160156 -10.234375 6.796875 -10.234375 C 5.890625 -10.234375 5.070312 -10.035156 4.34375 -9.640625 C 3.613281 -9.242188 3.039062 -8.6875 2.625 -7.96875 C 2.207031 -7.257812 2 -6.46875 2 -5.59375 C 2 -4.71875 2.207031 -3.925781 2.625 -3.21875 C 3.039062 -2.519531 3.609375 -1.96875 4.328125 -1.5625 C 5.054688 -1.15625 5.875 -0.953125 6.78125 -0.953125 C 7.9375 -0.953125 8.914062 -1.242188 9.71875 -1.828125 Z M 9.71875 -5.59375 "/></g></g></g><g fill="#ffffff" fill-opacity="1"><g transform="translate(402.975953, 82.080289)"><g><path d="M 5.65625 -3.875 L 5.65625 0 L 4.5 0 L 4.5 -3.875 L 0.015625 -11.203125 L 1.28125 -11.203125 L 5.125 -4.90625 L 8.953125 -11.203125 L 10.140625 -11.203125 Z M 5.65625 -3.875 "/></g></g></g><g fill="#ffffff" fill-opacity="1"><g transform="translate(262.982799, 103.83871)"><g><path d="M 6.6875 0.09375 C 5.582031 0.09375 4.582031 -0.148438 3.6875 -0.640625 C 2.800781 -1.128906 2.101562 -1.804688 1.59375 -2.671875 C 1.082031 -3.546875 0.828125 -4.519531 0.828125 -5.59375 C 0.828125 -6.675781 1.082031 -7.648438 1.59375 -8.515625 C 2.101562 -9.390625 2.804688 -10.070312 3.703125 -10.5625 C 4.597656 -11.050781 5.597656 -11.296875 6.703125 -11.296875 C 7.535156 -11.296875 8.300781 -11.15625 9 -10.875 C 9.707031 -10.601562 10.304688 -10.195312 10.796875 -9.65625 L 10.046875 -8.90625 C 9.171875 -9.789062 8.066406 -10.234375 6.734375 -10.234375 C 5.847656 -10.234375 5.039062 -10.03125 4.3125 -9.625 C 3.59375 -9.226562 3.023438 -8.675781 2.609375 -7.96875 C 2.203125 -7.257812 2 -6.46875 2 -5.59375 C 2 -4.71875 2.203125 -3.925781 2.609375 -3.21875 C 3.023438 -2.519531 3.59375 -1.96875 4.3125 -1.5625 C 5.039062 -1.15625 5.847656 -0.953125 6.734375 -0.953125 C 8.078125 -0.953125 9.179688 -1.398438 10.046875 -2.296875 L 10.796875 -1.546875 C 10.304688 -1.015625 9.707031 -0.609375 9 -0.328125 C 8.289062 -0.046875 7.519531 0.09375 6.6875 0.09375 Z M 6.6875 0.09375 "/></g></g></g><g fill="#ffffff" fill-opacity="1"><g transform="translate(278.643915, 103.83871)"><g><path d="M 6.71875 0.09375 C 5.613281 0.09375 4.609375 -0.148438 3.703125 -0.640625 C 2.804688 -1.140625 2.101562 -1.820312 1.59375 -2.6875 C 1.082031 -3.550781 0.828125 -4.519531 0.828125 -5.59375 C 0.828125 -6.675781 1.082031 -7.648438 1.59375 -8.515625 C 2.101562 -9.378906 2.804688 -10.054688 3.703125 -10.546875 C 4.609375 -11.046875 5.613281 -11.296875 6.71875 -11.296875 C 7.832031 -11.296875 8.832031 -11.050781 9.71875 -10.5625 C 10.613281 -10.070312 11.316406 -9.390625 11.828125 -8.515625 C 12.335938 -7.648438 12.59375 -6.675781 12.59375 -5.59375 C 12.59375 -4.519531 12.335938 -3.546875 11.828125 -2.671875 C 11.316406 -1.804688 10.613281 -1.128906 9.71875 -0.640625 C 8.832031 -0.148438 7.832031 0.09375 6.71875 0.09375 Z M 6.71875 -0.953125 C 7.601562 -0.953125 8.398438 -1.148438 9.109375 -1.546875 C 9.828125 -1.953125 10.390625 -2.507812 10.796875 -3.21875 C 11.203125 -3.925781 11.40625 -4.71875 11.40625 -5.59375 C 11.40625 -6.46875 11.203125 -7.257812 10.796875 -7.96875 C 10.390625 -8.6875 9.828125 -9.242188 9.109375 -9.640625 C 8.398438 -10.035156 7.601562 -10.234375 6.71875 -10.234375 C 5.832031 -10.234375 5.03125 -10.035156 4.3125 -9.640625 C 3.59375 -9.242188 3.023438 -8.6875 2.609375 -7.96875 C 2.203125 -7.257812 2 -6.46875 2 -5.59375 C 2 -4.71875 2.203125 -3.925781 2.609375 -3.21875 C 3.023438 -2.507812 3.59375 -1.953125 4.3125 -1.546875 C 5.03125 -1.148438 5.832031 -0.953125 6.71875 -0.953125 Z M 6.71875 -0.953125 "/></g></g></g><g fill="#ffffff" fill-opacity="1"><g transform="translate(296.224126, 103.83871)"><g><path d="M 11.1875 -11.203125 L 11.1875 0 L 10.203125 0 L 3.015625 -9.09375 L 3.015625 0 L 1.828125 0 L 1.828125 -11.203125 L 2.796875 -11.203125 L 10.015625 -2.109375 L 10.015625 -11.203125 Z M 11.1875 -11.203125 "/></g></g></g><g fill="#ffffff" fill-opacity="1"><g transform="translate(313.38853, 103.83871)"><g><path d="M 4.90625 0.09375 C 4.070312 0.09375 3.273438 -0.0351562 2.515625 -0.296875 C 1.753906 -0.566406 1.164062 -0.921875 0.75 -1.359375 L 1.21875 -2.265625 C 1.625 -1.859375 2.160156 -1.53125 2.828125 -1.28125 C 3.503906 -1.03125 4.195312 -0.90625 4.90625 -0.90625 C 5.914062 -0.90625 6.671875 -1.085938 7.171875 -1.453125 C 7.671875 -1.828125 7.921875 -2.304688 7.921875 -2.890625 C 7.921875 -3.335938 7.785156 -3.695312 7.515625 -3.96875 C 7.242188 -4.238281 6.910156 -4.441406 6.515625 -4.578125 C 6.117188 -4.722656 5.566406 -4.882812 4.859375 -5.0625 C 4.015625 -5.269531 3.34375 -5.472656 2.84375 -5.671875 C 2.34375 -5.867188 1.914062 -6.171875 1.5625 -6.578125 C 1.207031 -6.984375 1.03125 -7.53125 1.03125 -8.21875 C 1.03125 -8.789062 1.175781 -9.304688 1.46875 -9.765625 C 1.769531 -10.234375 2.226562 -10.601562 2.84375 -10.875 C 3.46875 -11.15625 4.238281 -11.296875 5.15625 -11.296875 C 5.789062 -11.296875 6.414062 -11.207031 7.03125 -11.03125 C 7.644531 -10.851562 8.175781 -10.609375 8.625 -10.296875 L 8.21875 -9.359375 C 7.75 -9.671875 7.25 -9.898438 6.71875 -10.046875 C 6.1875 -10.203125 5.664062 -10.28125 5.15625 -10.28125 C 4.175781 -10.28125 3.4375 -10.09375 2.9375 -9.71875 C 2.4375 -9.34375 2.1875 -8.851562 2.1875 -8.25 C 2.1875 -7.800781 2.320312 -7.441406 2.59375 -7.171875 C 2.875 -6.898438 3.21875 -6.691406 3.625 -6.546875 C 4.03125 -6.410156 4.582031 -6.253906 5.28125 -6.078125 C 6.101562 -5.878906 6.765625 -5.679688 7.265625 -5.484375 C 7.773438 -5.285156 8.207031 -4.984375 8.5625 -4.578125 C 8.914062 -4.179688 9.09375 -3.640625 9.09375 -2.953125 C 9.09375 -2.390625 8.9375 -1.875 8.625 -1.40625 C 8.320312 -0.945312 7.851562 -0.582031 7.21875 -0.3125 C 6.59375 -0.0390625 5.820312 0.09375 4.90625 0.09375 Z M 4.90625 0.09375 "/></g></g></g><g fill="#ffffff" fill-opacity="1"><g transform="translate(327.38645, 103.83871)"><g><path d="M 6.34375 0.09375 C 4.882812 0.09375 3.75 -0.320312 2.9375 -1.15625 C 2.132812 -1.988281 1.734375 -3.195312 1.734375 -4.78125 L 1.734375 -11.203125 L 2.90625 -11.203125 L 2.90625 -4.828125 C 2.90625 -3.523438 3.195312 -2.550781 3.78125 -1.90625 C 4.375 -1.269531 5.226562 -0.953125 6.34375 -0.953125 C 7.457031 -0.953125 8.304688 -1.269531 8.890625 -1.90625 C 9.484375 -2.550781 9.78125 -3.523438 9.78125 -4.828125 L 9.78125 -11.203125 L 10.921875 -11.203125 L 10.921875 -4.78125 C 10.921875 -3.195312 10.519531 -1.988281 9.71875 -1.15625 C 8.914062 -0.320312 7.789062 0.09375 6.34375 0.09375 Z M 6.34375 0.09375 "/></g></g></g><g fill="#ffffff" fill-opacity="1"><g transform="translate(344.21501, 103.83871)"><g><path d="M 1.828125 -11.203125 L 3.015625 -11.203125 L 3.015625 -1.03125 L 9.28125 -1.03125 L 9.28125 0 L 1.828125 0 Z M 1.828125 -11.203125 "/></g></g></g><g fill="#ffffff" fill-opacity="1"><g transform="translate(357.797124, 103.83871)"><g><path d="M 4 -10.171875 L 0.0625 -10.171875 L 0.0625 -11.203125 L 9.125 -11.203125 L 9.125 -10.171875 L 5.1875 -10.171875 L 5.1875 0 L 4 0 Z M 4 -10.171875 "/></g></g></g><g fill="#ffffff" fill-opacity="1"><g transform="translate(371.139356, 103.83871)"><g><path d="M 1.828125 -11.203125 L 3.015625 -11.203125 L 3.015625 0 L 1.828125 0 Z M 1.828125 -11.203125 "/></g></g></g><g fill="#ffffff" fill-opacity="1"><g transform="translate(380.131657, 103.83871)"><g><path d="M 11.1875 -11.203125 L 11.1875 0 L 10.203125 0 L 3.015625 -9.09375 L 3.015625 0 L 1.828125 0 L 1.828125 -11.203125 L 2.796875 -11.203125 L 10.015625 -2.109375 L 10.015625 -11.203125 Z M 11.1875 -11.203125 "/></g></g></g><g fill="#ffffff" fill-opacity="1"><g transform="translate(397.296056, 103.83871)"><g><path d="M 9.71875 -5.59375 L 10.84375 -5.59375 L 10.84375 -1.328125 C 10.320312 -0.867188 9.703125 -0.515625 8.984375 -0.265625 C 8.273438 -0.0234375 7.523438 0.09375 6.734375 0.09375 C 5.617188 0.09375 4.613281 -0.148438 3.71875 -0.640625 C 2.820312 -1.128906 2.113281 -1.804688 1.59375 -2.671875 C 1.082031 -3.546875 0.828125 -4.519531 0.828125 -5.59375 C 0.828125 -6.675781 1.082031 -7.648438 1.59375 -8.515625 C 2.113281 -9.390625 2.820312 -10.070312 3.71875 -10.5625 C 4.613281 -11.050781 5.625 -11.296875 6.75 -11.296875 C 7.601562 -11.296875 8.382812 -11.160156 9.09375 -10.890625 C 9.8125 -10.617188 10.414062 -10.21875 10.90625 -9.6875 L 10.171875 -8.921875 C 9.285156 -9.796875 8.160156 -10.234375 6.796875 -10.234375 C 5.890625 -10.234375 5.070312 -10.035156 4.34375 -9.640625 C 3.613281 -9.242188 3.039062 -8.6875 2.625 -7.96875 C 2.207031 -7.257812 2 -6.46875 2 -5.59375 C 2 -4.71875 2.207031 -3.925781 2.625 -3.21875 C 3.039062 -2.519531 3.609375 -1.96875 4.328125 -1.5625 C 5.054688 -1.15625 5.875 -0.953125 6.78125 -0.953125 C 7.9375 -0.953125 8.914062 -1.242188 9.71875 -1.828125 Z M 9.71875 -5.59375 "/></g></g></g></svg>