<svg xmlns="http://www.w3.org/2000/svg" xmlns:xlink="http://www.w3.org/1999/xlink" width="746" zoomAndPan="magnify" viewBox="0 0 559.5 142.499996" height="190" preserveAspectRatio="xMidYMid meet" version="1.0"><defs><g/><clipPath id="98804f7910"><path d="M 63 67 L 103.960938 67 L 103.960938 82 L 63 82 Z M 63 67 " clip-rule="nonzero"/></clipPath><clipPath id="0dfbbdde4f"><path d="M 0.730469 71 L 40 71 L 40 82 L 0.730469 82 Z M 0.730469 71 " clip-rule="nonzero"/></clipPath><clipPath id="56fdf68d09"><path d="M 0.730469 61 L 40 61 L 40 72 L 0.730469 72 Z M 0.730469 61 " clip-rule="nonzero"/></clipPath><clipPath id="2500978dd0"><path d="M 61 103 L 83 103 L 83 142 L 61 142 Z M 61 103 " clip-rule="nonzero"/></clipPath></defs><path fill="#eb1d27" d="M 76.230469 88.277344 L 78.019531 81.589844 L 63.550781 67.113281 Z M 76.230469 88.277344 " fill-opacity="1" fill-rule="nonzero"/><g clip-path="url(#98804f7910)"><path fill="#be1c2d" d="M 63.550781 67.113281 L 78.019531 81.589844 L 103.957031 74.550781 Z M 63.550781 67.113281 " fill-opacity="1" fill-rule="nonzero"/></g><path fill="#3881b7" d="M 37.773438 51.800781 L 43.878906 53.226562 C 46.398438 49.289062 49.734375 45.921875 53.636719 43.359375 L 52.148438 37.265625 C 50.710938 38.097656 49.335938 39.019531 48.027344 40.027344 L 21.535156 20.808594 L 40.742188 47.3125 C 39.652344 48.734375 38.660156 50.234375 37.773438 51.800781 " fill-opacity="1" fill-rule="nonzero"/><path fill="#eb1d27" d="M 71.761719 37.957031 C 74.078125 37.957031 76.339844 38.195312 78.523438 38.648438 L 81.777344 33.285156 C 80.191406 32.867188 78.566406 32.539062 76.910156 32.324219 L 71.761719 -0.00390625 L 66.609375 32.324219 C 64.808594 32.5625 63.050781 32.921875 61.335938 33.394531 L 64.648438 38.726562 C 66.9375 38.222656 69.316406 37.957031 71.761719 37.957031 " fill-opacity="1" fill-rule="nonzero"/><g clip-path="url(#0dfbbdde4f)"><path fill="#4fabe4" d="M 34.113281 81.488281 L 39.441406 78.171875 C 38.941406 75.882812 38.671875 73.5 38.671875 71.058594 L 0.730469 71.058594 L 33.042969 76.210938 C 33.28125 78.011719 33.640625 79.773438 34.113281 81.488281 " fill-opacity="1" fill-rule="nonzero"/></g><g clip-path="url(#56fdf68d09)"><path fill="#3881b7" d="M 39.367188 64.289062 L 34.003906 61.035156 C 33.585938 62.621094 33.261719 64.246094 33.042969 65.90625 L 0.730469 71.058594 L 38.671875 71.058594 C 38.671875 68.738281 38.914062 66.476562 39.367188 64.289062 " fill-opacity="1" fill-rule="nonzero"/></g><g clip-path="url(#2500978dd0)"><path fill="#4fabe4" d="M 71.761719 104.160156 C 69.441406 104.160156 67.179688 103.917969 64.996094 103.464844 L 61.742188 108.828125 C 63.328125 109.25 64.953125 109.570312 66.609375 109.792969 L 71.761719 142.117188 L 76.910156 109.792969 C 78.710938 109.554688 80.472656 109.191406 82.183594 108.71875 L 78.871094 103.390625 C 76.582031 103.894531 74.203125 104.160156 71.761719 104.160156 " fill-opacity="1" fill-rule="nonzero"/></g><path fill="#4fabe4" d="M 44.074219 89.1875 L 37.980469 90.679688 C 38.816406 92.113281 39.738281 93.488281 40.742188 94.800781 L 21.535156 121.304688 L 48.027344 102.089844 C 49.449219 103.179688 50.945312 104.171875 52.511719 105.0625 L 53.9375 98.949219 C 50.003906 96.429688 46.636719 93.09375 44.074219 89.1875 " fill-opacity="1" fill-rule="nonzero"/><path fill="#3881b7" d="M 40.441406 71.058594 L 50.578125 71.058594 C 51.191406 65.484375 53.476562 60.414062 56.921875 56.363281 L 54.144531 45.253906 C 45.878906 50.851562 40.441406 60.320312 40.441406 71.058594 " fill-opacity="1" fill-rule="nonzero"/><path fill="#eb1d27" d="M 71.554688 39.929688 C 69.5625 39.929688 67.613281 40.121094 65.722656 40.476562 L 70.246094 47.773438 C 72.628906 47.09375 75.148438 46.730469 77.75 46.730469 C 86.742188 46.730469 94.722656 51.074219 99.707031 57.78125 C 94.726562 47.230469 83.992188 39.929688 71.554688 39.929688 " fill-opacity="1" fill-rule="nonzero"/><path fill="#4fabe4" d="M 77.75 101.429688 C 67.257812 101.429688 58.148438 95.515625 53.566406 86.839844 L 45.9375 88.71875 C 51.546875 96.855469 60.929688 102.183594 71.554688 102.183594 C 73.917969 102.183594 76.21875 101.917969 78.433594 101.421875 C 78.207031 101.425781 77.976562 101.429688 77.75 101.429688 " fill-opacity="1" fill-rule="nonzero"/><path fill="#4fabe4" d="M 50.578125 71.058594 L 40.441406 71.058594 C 40.441406 73.164062 40.652344 75.222656 41.050781 77.214844 L 50.546875 71.371094 C 50.558594 71.265625 50.566406 71.160156 50.578125 71.058594 " fill-opacity="1" fill-rule="nonzero"/><g fill="#ffffff" fill-opacity="1"><g transform="translate(222.480431, 62.208296)"><g><path d="M 1.910156 0 L 7.996094 0 L 7.996094 -0.636719 C 5.632812 -1.363281 4.542969 -2.953125 4.542969 -8.496094 L 4.542969 -27.351562 L 15.949219 -8.632812 L 16.992188 -8.632812 L 27.898438 -27.761719 L 27.898438 -5.769531 C 27.898438 -2.5 27.578125 -1.136719 26.082031 -0.636719 L 26.082031 0 L 34.53125 0 L 34.53125 -0.636719 C 33.03125 -1.136719 32.714844 -2.5 32.714844 -5.769531 L 32.714844 -23.308594 C 32.714844 -28.851562 33.714844 -30.441406 35.804688 -31.167969 L 35.804688 -31.804688 L 29.351562 -31.804688 L 18.675781 -13.175781 L 7.453125 -31.804688 L 0.636719 -31.804688 L 0.636719 -31.167969 C 2.726562 -30.441406 3.726562 -28.851562 3.726562 -23.308594 L 3.726562 -5.769531 C 3.726562 -2.5 3.40625 -1.136719 1.910156 -0.636719 Z M 1.910156 0 "/></g></g></g><g fill="#ffffff" fill-opacity="1"><g transform="translate(260.416149, 62.208296)"><g><path d="M 2.136719 0 L 10.585938 0 L 10.585938 -0.636719 C 9.085938 -1.136719 8.769531 -2.5 8.769531 -5.769531 L 8.769531 -26.035156 C 8.769531 -29.304688 9.085938 -30.667969 10.585938 -31.167969 L 10.585938 -31.804688 L 2.136719 -31.804688 L 2.136719 -31.167969 C 3.636719 -30.667969 3.953125 -29.304688 3.953125 -26.035156 L 3.953125 -5.769531 C 3.953125 -2.5 3.636719 -1.136719 2.136719 -0.636719 Z M 2.136719 0 "/></g></g></g><g fill="#ffffff" fill-opacity="1"><g transform="translate(273.137111, 62.208296)"><g><path d="M 12.996094 0.453125 C 18.21875 0.453125 23.945312 -3 23.945312 -9.222656 C 23.945312 -14.675781 18.445312 -16.71875 13.8125 -18.492188 C 10.175781 -19.945312 5.589844 -21.582031 5.589844 -25.625 C 5.589844 -29.214844 8.449219 -31.351562 12.085938 -31.351562 C 16.492188 -31.351562 20.355469 -28.804688 22.21875 -24.125 L 22.71875 -24.308594 L 22.535156 -30.214844 C 20.171875 -31.394531 17.175781 -32.125 13.8125 -32.125 C 6.679688 -32.125 2.136719 -28.625 2.136719 -22.992188 C 2.136719 -17.71875 6.042969 -16.175781 10.722656 -14.222656 C 14.359375 -12.769531 20.21875 -10.675781 20.21875 -6.226562 C 20.21875 -2.5 17.3125 -0.5 14.175781 -0.5 C 8.132812 -0.5 4.089844 -4.5 2.179688 -9.679688 L 1.589844 -9.585938 L 1.773438 -2.773438 C 4.089844 -1.046875 8.316406 0.453125 12.996094 0.453125 Z M 12.996094 0.453125 "/></g></g></g><g fill="#ffffff" fill-opacity="1"><g transform="translate(298.261011, 62.208296)"><g><path d="M 12.996094 0.453125 C 18.21875 0.453125 23.945312 -3 23.945312 -9.222656 C 23.945312 -14.675781 18.445312 -16.71875 13.8125 -18.492188 C 10.175781 -19.945312 5.589844 -21.582031 5.589844 -25.625 C 5.589844 -29.214844 8.449219 -31.351562 12.085938 -31.351562 C 16.492188 -31.351562 20.355469 -28.804688 22.21875 -24.125 L 22.71875 -24.308594 L 22.535156 -30.214844 C 20.171875 -31.394531 17.175781 -32.125 13.8125 -32.125 C 6.679688 -32.125 2.136719 -28.625 2.136719 -22.992188 C 2.136719 -17.71875 6.042969 -16.175781 10.722656 -14.222656 C 14.359375 -12.769531 20.21875 -10.675781 20.21875 -6.226562 C 20.21875 -2.5 17.3125 -0.5 14.175781 -0.5 C 8.132812 -0.5 4.089844 -4.5 2.179688 -9.679688 L 1.589844 -9.585938 L 1.773438 -2.773438 C 4.089844 -1.046875 8.316406 0.453125 12.996094 0.453125 Z M 12.996094 0.453125 "/></g></g></g><g fill="#ffffff" fill-opacity="1"><g transform="translate(323.38491, 62.208296)"><g><path d="M 2.136719 0 L 10.585938 0 L 10.585938 -0.636719 C 9.085938 -1.136719 8.769531 -2.5 8.769531 -5.769531 L 8.769531 -26.035156 C 8.769531 -29.304688 9.085938 -30.667969 10.585938 -31.167969 L 10.585938 -31.804688 L 2.136719 -31.804688 L 2.136719 -31.167969 C 3.636719 -30.667969 3.953125 -29.304688 3.953125 -26.035156 L 3.953125 -5.769531 C 3.953125 -2.5 3.636719 -1.136719 2.136719 -0.636719 Z M 2.136719 0 "/></g></g></g><g fill="#ffffff" fill-opacity="1"><g transform="translate(336.105872, 62.208296)"><g><path d="M 18.71875 0.453125 C 26.351562 0.453125 34.941406 -4.679688 34.941406 -15.765625 C 34.941406 -26.898438 26.398438 -32.167969 18.71875 -32.167969 C 9.085938 -32.167969 2.453125 -25.035156 2.453125 -16.039062 C 2.453125 -4.632812 10.996094 0.453125 18.71875 0.453125 Z M 7.179688 -18.8125 C 6.679688 -26.171875 10.175781 -30.988281 16.355469 -30.988281 C 24.21875 -30.988281 29.667969 -21.855469 30.351562 -12.175781 C 30.761719 -6.179688 28.261719 -0.953125 21.308594 -0.953125 C 13.585938 -0.953125 7.816406 -9.722656 7.179688 -18.8125 Z M 7.179688 -18.8125 "/></g></g></g><g fill="#ffffff" fill-opacity="1"><g transform="translate(373.360113, 62.208296)"><g><path d="M 26.082031 0.363281 L 26.671875 0.363281 L 26.671875 -26.035156 C 26.671875 -29.304688 26.988281 -30.667969 28.488281 -31.167969 L 28.488281 -31.804688 L 22.355469 -31.804688 L 22.355469 -31.167969 C 24.71875 -30.441406 25.808594 -28.851562 25.808594 -23.308594 L 25.808594 -7.90625 L 6.722656 -31.804688 L 1.589844 -31.804688 L 1.589844 -31.167969 C 3.542969 -30.667969 3.953125 -29.304688 3.953125 -26.035156 L 3.953125 -5.769531 C 3.953125 -2.5 3.636719 -1.136719 2.136719 -0.636719 L 2.136719 0 L 8.222656 0 L 8.222656 -0.636719 C 5.859375 -1.363281 4.769531 -2.953125 4.769531 -8.496094 L 4.769531 -26.535156 Z M 26.082031 0.363281 "/></g></g></g><g fill="#ffffff" fill-opacity="1"><g transform="translate(403.436091, 62.208296)"><g/></g></g><g fill="#ffffff" fill-opacity="1"><g transform="translate(412.522488, 62.208296)"><g><path d="M 2.136719 0 L 10.585938 0 L 10.585938 -0.636719 C 9.085938 -1.136719 8.769531 -2.5 8.769531 -5.769531 L 8.769531 -26.035156 C 8.769531 -29.304688 9.085938 -30.667969 10.585938 -31.167969 L 10.585938 -31.804688 L 2.136719 -31.804688 L 2.136719 -31.167969 C 3.636719 -30.667969 3.953125 -29.304688 3.953125 -26.035156 L 3.953125 -5.769531 C 3.953125 -2.5 3.636719 -1.136719 2.136719 -0.636719 Z M 2.136719 0 "/></g></g></g><g fill="#ffffff" fill-opacity="1"><g transform="translate(425.243438, 62.208296)"><g><path d="M 8.542969 0 L 17.039062 0 L 17.039062 -0.636719 C 15.539062 -1.136719 15.222656 -2.5 15.222656 -5.769531 L 15.222656 -30.988281 L 16.539062 -30.988281 C 20.582031 -30.988281 22.628906 -29.851562 24.308594 -26.214844 L 24.855469 -26.308594 L 24.582031 -31.804688 L 0.910156 -31.804688 L 0.636719 -26.308594 L 1.179688 -26.214844 C 2.863281 -29.851562 4.90625 -30.988281 8.949219 -30.988281 L 10.359375 -30.988281 L 10.359375 -5.769531 C 10.359375 -2.5 10.042969 -1.136719 8.542969 -0.636719 Z M 8.542969 0 "/></g></g></g><g fill="#ffffff" fill-opacity="1"><g transform="translate(141.135654, 90.00963)"><g><path d="M 5 -12.71875 L 0.078125 -12.71875 L 0.078125 -14 L 11.40625 -14 L 11.40625 -12.71875 L 6.484375 -12.71875 L 6.484375 0 L 5 0 Z M 5 -12.71875 "/></g></g></g><g fill="#ffffff" fill-opacity="1"><g transform="translate(157.808021, 90.00963)"><g><path d="M 12.1875 -1.28125 L 12.1875 0 L 2.28125 0 L 2.28125 -14 L 11.875 -14 L 11.875 -12.71875 L 3.765625 -12.71875 L 3.765625 -7.734375 L 11 -7.734375 L 11 -6.484375 L 3.765625 -6.484375 L 3.765625 -1.28125 Z M 12.1875 -1.28125 "/></g></g></g><g fill="#ffffff" fill-opacity="1"><g transform="translate(176.379141, 90.00963)"><g><path d="M 8.359375 0.125 C 6.972656 0.125 5.722656 -0.179688 4.609375 -0.796875 C 3.492188 -1.410156 2.617188 -2.257812 1.984375 -3.34375 C 1.359375 -4.4375 1.046875 -5.65625 1.046875 -7 C 1.046875 -8.34375 1.359375 -9.554688 1.984375 -10.640625 C 2.617188 -11.734375 3.492188 -12.585938 4.609375 -13.203125 C 5.734375 -13.816406 6.988281 -14.125 8.375 -14.125 C 9.414062 -14.125 10.375 -13.945312 11.25 -13.59375 C 12.132812 -13.25 12.882812 -12.742188 13.5 -12.078125 L 12.5625 -11.140625 C 11.46875 -12.242188 10.085938 -12.796875 8.421875 -12.796875 C 7.316406 -12.796875 6.3125 -12.539062 5.40625 -12.03125 C 4.5 -11.53125 3.785156 -10.835938 3.265625 -9.953125 C 2.753906 -9.078125 2.5 -8.09375 2.5 -7 C 2.5 -5.90625 2.753906 -4.914062 3.265625 -4.03125 C 3.785156 -3.15625 4.5 -2.460938 5.40625 -1.953125 C 6.3125 -1.453125 7.316406 -1.203125 8.421875 -1.203125 C 10.097656 -1.203125 11.476562 -1.757812 12.5625 -2.875 L 13.5 -1.9375 C 12.882812 -1.269531 12.132812 -0.757812 11.25 -0.40625 C 10.363281 -0.0507812 9.398438 0.125 8.359375 0.125 Z M 8.359375 0.125 "/></g></g></g><g fill="#ffffff" fill-opacity="1"><g transform="translate(195.949616, 90.00963)"><g><path d="M 13.984375 -14 L 13.984375 0 L 12.515625 0 L 12.515625 -6.453125 L 3.765625 -6.453125 L 3.765625 0 L 2.28125 0 L 2.28125 -14 L 3.765625 -14 L 3.765625 -7.765625 L 12.515625 -7.765625 L 12.515625 -14 Z M 13.984375 -14 "/></g></g></g><g fill="#ffffff" fill-opacity="1"><g transform="translate(217.398852, 90.00963)"><g><path d="M 13.984375 -14 L 13.984375 0 L 12.765625 0 L 3.765625 -11.359375 L 3.765625 0 L 2.28125 0 L 2.28125 -14 L 3.5 -14 L 12.515625 -2.640625 L 12.515625 -14 Z M 13.984375 -14 "/></g></g></g><g fill="#ffffff" fill-opacity="1"><g transform="translate(238.848087, 90.00963)"><g><path d="M 8.40625 0.125 C 7.007812 0.125 5.75 -0.179688 4.625 -0.796875 C 3.5 -1.421875 2.617188 -2.273438 1.984375 -3.359375 C 1.359375 -4.441406 1.046875 -5.65625 1.046875 -7 C 1.046875 -8.34375 1.359375 -9.554688 1.984375 -10.640625 C 2.617188 -11.722656 3.5 -12.570312 4.625 -13.1875 C 5.75 -13.8125 7.007812 -14.125 8.40625 -14.125 C 9.789062 -14.125 11.035156 -13.816406 12.140625 -13.203125 C 13.253906 -12.585938 14.128906 -11.734375 14.765625 -10.640625 C 15.410156 -9.554688 15.734375 -8.34375 15.734375 -7 C 15.734375 -5.65625 15.410156 -4.4375 14.765625 -3.34375 C 14.128906 -2.257812 13.253906 -1.410156 12.140625 -0.796875 C 11.035156 -0.179688 9.789062 0.125 8.40625 0.125 Z M 8.40625 -1.203125 C 9.507812 -1.203125 10.503906 -1.453125 11.390625 -1.953125 C 12.285156 -2.453125 12.988281 -3.144531 13.5 -4.03125 C 14.007812 -4.914062 14.265625 -5.90625 14.265625 -7 C 14.265625 -8.09375 14.007812 -9.082031 13.5 -9.96875 C 12.988281 -10.851562 12.285156 -11.546875 11.390625 -12.046875 C 10.503906 -12.546875 9.507812 -12.796875 8.40625 -12.796875 C 7.289062 -12.796875 6.285156 -12.546875 5.390625 -12.046875 C 4.492188 -11.546875 3.785156 -10.851562 3.265625 -9.96875 C 2.753906 -9.082031 2.5 -8.09375 2.5 -7 C 2.5 -5.90625 2.753906 -4.914062 3.265625 -4.03125 C 3.785156 -3.144531 4.492188 -2.453125 5.390625 -1.953125 C 6.285156 -1.453125 7.289062 -1.203125 8.40625 -1.203125 Z M 8.40625 -1.203125 "/></g></g></g><g fill="#ffffff" fill-opacity="1"><g transform="translate(260.81698, 90.00963)"><g><path d="M 2.28125 -14 L 3.765625 -14 L 3.765625 -1.28125 L 11.59375 -1.28125 L 11.59375 0 L 2.28125 0 Z M 2.28125 -14 "/></g></g></g><g fill="#ffffff" fill-opacity="1"><g transform="translate(277.789151, 90.00963)"><g><path d="M 8.40625 0.125 C 7.007812 0.125 5.75 -0.179688 4.625 -0.796875 C 3.5 -1.421875 2.617188 -2.273438 1.984375 -3.359375 C 1.359375 -4.441406 1.046875 -5.65625 1.046875 -7 C 1.046875 -8.34375 1.359375 -9.554688 1.984375 -10.640625 C 2.617188 -11.722656 3.5 -12.570312 4.625 -13.1875 C 5.75 -13.8125 7.007812 -14.125 8.40625 -14.125 C 9.789062 -14.125 11.035156 -13.816406 12.140625 -13.203125 C 13.253906 -12.585938 14.128906 -11.734375 14.765625 -10.640625 C 15.410156 -9.554688 15.734375 -8.34375 15.734375 -7 C 15.734375 -5.65625 15.410156 -4.4375 14.765625 -3.34375 C 14.128906 -2.257812 13.253906 -1.410156 12.140625 -0.796875 C 11.035156 -0.179688 9.789062 0.125 8.40625 0.125 Z M 8.40625 -1.203125 C 9.507812 -1.203125 10.503906 -1.453125 11.390625 -1.953125 C 12.285156 -2.453125 12.988281 -3.144531 13.5 -4.03125 C 14.007812 -4.914062 14.265625 -5.90625 14.265625 -7 C 14.265625 -8.09375 14.007812 -9.082031 13.5 -9.96875 C 12.988281 -10.851562 12.285156 -11.546875 11.390625 -12.046875 C 10.503906 -12.546875 9.507812 -12.796875 8.40625 -12.796875 C 7.289062 -12.796875 6.285156 -12.546875 5.390625 -12.046875 C 4.492188 -11.546875 3.785156 -10.851562 3.265625 -9.96875 C 2.753906 -9.082031 2.5 -8.09375 2.5 -7 C 2.5 -5.90625 2.753906 -4.914062 3.265625 -4.03125 C 3.785156 -3.144531 4.492188 -2.453125 5.390625 -1.953125 C 6.285156 -1.453125 7.289062 -1.203125 8.40625 -1.203125 Z M 8.40625 -1.203125 "/></g></g></g><g fill="#ffffff" fill-opacity="1"><g transform="translate(299.758044, 90.00963)"><g><path d="M 12.140625 -7 L 13.5625 -7 L 13.5625 -1.65625 C 12.90625 -1.082031 12.128906 -0.640625 11.234375 -0.328125 C 10.347656 -0.0234375 9.410156 0.125 8.421875 0.125 C 7.015625 0.125 5.75 -0.179688 4.625 -0.796875 C 3.507812 -1.410156 2.632812 -2.257812 2 -3.34375 C 1.363281 -4.4375 1.046875 -5.65625 1.046875 -7 C 1.046875 -8.34375 1.363281 -9.554688 2 -10.640625 C 2.632812 -11.734375 3.507812 -12.585938 4.625 -13.203125 C 5.75 -13.816406 7.019531 -14.125 8.4375 -14.125 C 9.507812 -14.125 10.488281 -13.953125 11.375 -13.609375 C 12.269531 -13.265625 13.023438 -12.757812 13.640625 -12.09375 L 12.71875 -11.15625 C 11.613281 -12.25 10.207031 -12.796875 8.5 -12.796875 C 7.363281 -12.796875 6.335938 -12.546875 5.421875 -12.046875 C 4.515625 -11.546875 3.800781 -10.851562 3.28125 -9.96875 C 2.757812 -9.082031 2.5 -8.09375 2.5 -7 C 2.5 -5.90625 2.757812 -4.914062 3.28125 -4.03125 C 3.800781 -3.15625 4.515625 -2.460938 5.421875 -1.953125 C 6.328125 -1.453125 7.347656 -1.203125 8.484375 -1.203125 C 9.921875 -1.203125 11.140625 -1.5625 12.140625 -2.28125 Z M 12.140625 -7 "/></g></g></g><g fill="#ffffff" fill-opacity="1"><g transform="translate(320.407801, 90.00963)"><g><path d="M 7.078125 -4.84375 L 7.078125 0 L 5.625 0 L 5.625 -4.84375 L 0.015625 -14 L 1.59375 -14 L 6.40625 -6.140625 L 11.203125 -14 L 12.6875 -14 Z M 7.078125 -4.84375 "/></g></g></g><g fill="#ffffff" fill-opacity="1"><g transform="translate(338.299369, 90.00963)"><g/></g></g><g fill="#ffffff" fill-opacity="1"><g transform="translate(348.735822, 90.00963)"><g><path d="M 8.359375 0.125 C 6.972656 0.125 5.722656 -0.179688 4.609375 -0.796875 C 3.492188 -1.410156 2.617188 -2.257812 1.984375 -3.34375 C 1.359375 -4.4375 1.046875 -5.65625 1.046875 -7 C 1.046875 -8.34375 1.359375 -9.554688 1.984375 -10.640625 C 2.617188 -11.734375 3.492188 -12.585938 4.609375 -13.203125 C 5.734375 -13.816406 6.988281 -14.125 8.375 -14.125 C 9.414062 -14.125 10.375 -13.945312 11.25 -13.59375 C 12.132812 -13.25 12.882812 -12.742188 13.5 -12.078125 L 12.5625 -11.140625 C 11.46875 -12.242188 10.085938 -12.796875 8.421875 -12.796875 C 7.316406 -12.796875 6.3125 -12.539062 5.40625 -12.03125 C 4.5 -11.53125 3.785156 -10.835938 3.265625 -9.953125 C 2.753906 -9.078125 2.5 -8.09375 2.5 -7 C 2.5 -5.90625 2.753906 -4.914062 3.265625 -4.03125 C 3.785156 -3.15625 4.5 -2.460938 5.40625 -1.953125 C 6.3125 -1.453125 7.316406 -1.203125 8.421875 -1.203125 C 10.097656 -1.203125 11.476562 -1.757812 12.5625 -2.875 L 13.5 -1.9375 C 12.882812 -1.269531 12.132812 -0.757812 11.25 -0.40625 C 10.363281 -0.0507812 9.398438 0.125 8.359375 0.125 Z M 8.359375 0.125 "/></g></g></g><g fill="#ffffff" fill-opacity="1"><g transform="translate(368.306291, 90.00963)"><g><path d="M 8.40625 0.125 C 7.007812 0.125 5.75 -0.179688 4.625 -0.796875 C 3.5 -1.421875 2.617188 -2.273438 1.984375 -3.359375 C 1.359375 -4.441406 1.046875 -5.65625 1.046875 -7 C 1.046875 -8.34375 1.359375 -9.554688 1.984375 -10.640625 C 2.617188 -11.722656 3.5 -12.570312 4.625 -13.1875 C 5.75 -13.8125 7.007812 -14.125 8.40625 -14.125 C 9.789062 -14.125 11.035156 -13.816406 12.140625 -13.203125 C 13.253906 -12.585938 14.128906 -11.734375 14.765625 -10.640625 C 15.410156 -9.554688 15.734375 -8.34375 15.734375 -7 C 15.734375 -5.65625 15.410156 -4.4375 14.765625 -3.34375 C 14.128906 -2.257812 13.253906 -1.410156 12.140625 -0.796875 C 11.035156 -0.179688 9.789062 0.125 8.40625 0.125 Z M 8.40625 -1.203125 C 9.507812 -1.203125 10.503906 -1.453125 11.390625 -1.953125 C 12.285156 -2.453125 12.988281 -3.144531 13.5 -4.03125 C 14.007812 -4.914062 14.265625 -5.90625 14.265625 -7 C 14.265625 -8.09375 14.007812 -9.082031 13.5 -9.96875 C 12.988281 -10.851562 12.285156 -11.546875 11.390625 -12.046875 C 10.503906 -12.546875 9.507812 -12.796875 8.40625 -12.796875 C 7.289062 -12.796875 6.285156 -12.546875 5.390625 -12.046875 C 4.492188 -11.546875 3.785156 -10.851562 3.265625 -9.96875 C 2.753906 -9.082031 2.5 -8.09375 2.5 -7 C 2.5 -5.90625 2.753906 -4.914062 3.265625 -4.03125 C 3.785156 -3.144531 4.492188 -2.453125 5.390625 -1.953125 C 6.285156 -1.453125 7.289062 -1.203125 8.40625 -1.203125 Z M 8.40625 -1.203125 "/></g></g></g><g fill="#ffffff" fill-opacity="1"><g transform="translate(390.275195, 90.00963)"><g><path d="M 13.984375 -14 L 13.984375 0 L 12.765625 0 L 3.765625 -11.359375 L 3.765625 0 L 2.28125 0 L 2.28125 -14 L 3.5 -14 L 12.515625 -2.640625 L 12.515625 -14 Z M 13.984375 -14 "/></g></g></g><g fill="#ffffff" fill-opacity="1"><g transform="translate(411.724431, 90.00963)"><g><path d="M 6.140625 0.125 C 5.097656 0.125 4.097656 -0.0390625 3.140625 -0.375 C 2.191406 -0.707031 1.457031 -1.148438 0.9375 -1.703125 L 1.515625 -2.84375 C 2.023438 -2.332031 2.695312 -1.921875 3.53125 -1.609375 C 4.375 -1.296875 5.242188 -1.140625 6.140625 -1.140625 C 7.390625 -1.140625 8.328125 -1.367188 8.953125 -1.828125 C 9.585938 -2.285156 9.90625 -2.882812 9.90625 -3.625 C 9.90625 -4.175781 9.734375 -4.617188 9.390625 -4.953125 C 9.046875 -5.285156 8.628906 -5.539062 8.140625 -5.71875 C 7.648438 -5.90625 6.960938 -6.101562 6.078125 -6.3125 C 5.023438 -6.582031 4.1875 -6.835938 3.5625 -7.078125 C 2.9375 -7.328125 2.398438 -7.707031 1.953125 -8.21875 C 1.503906 -8.726562 1.28125 -9.414062 1.28125 -10.28125 C 1.28125 -10.988281 1.46875 -11.628906 1.84375 -12.203125 C 2.21875 -12.785156 2.789062 -13.25 3.5625 -13.59375 C 4.332031 -13.945312 5.289062 -14.125 6.4375 -14.125 C 7.238281 -14.125 8.019531 -14.007812 8.78125 -13.78125 C 9.550781 -13.5625 10.21875 -13.257812 10.78125 -12.875 L 10.28125 -11.703125 C 9.695312 -12.085938 9.070312 -12.375 8.40625 -12.5625 C 7.738281 -12.757812 7.082031 -12.859375 6.4375 -12.859375 C 5.207031 -12.859375 4.28125 -12.617188 3.65625 -12.140625 C 3.039062 -11.671875 2.734375 -11.0625 2.734375 -10.3125 C 2.734375 -9.757812 2.90625 -9.3125 3.25 -8.96875 C 3.59375 -8.625 4.019531 -8.363281 4.53125 -8.1875 C 5.039062 -8.007812 5.726562 -7.8125 6.59375 -7.59375 C 7.625 -7.34375 8.457031 -7.09375 9.09375 -6.84375 C 9.726562 -6.601562 10.265625 -6.234375 10.703125 -5.734375 C 11.140625 -5.234375 11.359375 -4.554688 11.359375 -3.703125 C 11.359375 -2.992188 11.164062 -2.347656 10.78125 -1.765625 C 10.40625 -1.191406 9.820312 -0.734375 9.03125 -0.390625 C 8.25 -0.046875 7.285156 0.125 6.140625 0.125 Z M 6.140625 0.125 "/></g></g></g><g fill="#ffffff" fill-opacity="1"><g transform="translate(429.216271, 90.00963)"><g><path d="M 7.921875 0.125 C 6.109375 0.125 4.691406 -0.394531 3.671875 -1.4375 C 2.660156 -2.476562 2.15625 -3.992188 2.15625 -5.984375 L 2.15625 -14 L 3.640625 -14 L 3.640625 -6.046875 C 3.640625 -4.410156 4.003906 -3.191406 4.734375 -2.390625 C 5.472656 -1.597656 6.535156 -1.203125 7.921875 -1.203125 C 9.316406 -1.203125 10.378906 -1.597656 11.109375 -2.390625 C 11.847656 -3.191406 12.21875 -4.410156 12.21875 -6.046875 L 12.21875 -14 L 13.65625 -14 L 13.65625 -5.984375 C 13.65625 -3.992188 13.148438 -2.476562 12.140625 -1.4375 C 11.140625 -0.394531 9.734375 0.125 7.921875 0.125 Z M 7.921875 0.125 "/></g></g></g><g fill="#ffffff" fill-opacity="1"><g transform="translate(450.245781, 90.00963)"><g><path d="M 2.28125 -14 L 3.765625 -14 L 3.765625 -1.28125 L 11.59375 -1.28125 L 11.59375 0 L 2.28125 0 Z M 2.28125 -14 "/></g></g></g><g fill="#ffffff" fill-opacity="1"><g transform="translate(467.217952, 90.00963)"><g><path d="M 5 -12.71875 L 0.078125 -12.71875 L 0.078125 -14 L 11.40625 -14 L 11.40625 -12.71875 L 6.484375 -12.71875 L 6.484375 0 L 5 0 Z M 5 -12.71875 "/></g></g></g><g fill="#ffffff" fill-opacity="1"><g transform="translate(483.890316, 90.00963)"><g><path d="M 2.28125 -14 L 3.765625 -14 L 3.765625 0 L 2.28125 0 Z M 2.28125 -14 "/></g></g></g><g fill="#ffffff" fill-opacity="1"><g transform="translate(495.126248, 90.00963)"><g><path d="M 13.984375 -14 L 13.984375 0 L 12.765625 0 L 3.765625 -11.359375 L 3.765625 0 L 2.28125 0 L 2.28125 -14 L 3.5 -14 L 12.515625 -2.640625 L 12.515625 -14 Z M 13.984375 -14 "/></g></g></g><g fill="#ffffff" fill-opacity="1"><g transform="translate(516.575483, 90.00963)"><g><path d="M 12.140625 -7 L 13.5625 -7 L 13.5625 -1.65625 C 12.90625 -1.082031 12.128906 -0.640625 11.234375 -0.328125 C 10.347656 -0.0234375 9.410156 0.125 8.421875 0.125 C 7.015625 0.125 5.75 -0.179688 4.625 -0.796875 C 3.507812 -1.410156 2.632812 -2.257812 2 -3.34375 C 1.363281 -4.4375 1.046875 -5.65625 1.046875 -7 C 1.046875 -8.34375 1.363281 -9.554688 2 -10.640625 C 2.632812 -11.734375 3.507812 -12.585938 4.625 -13.203125 C 5.75 -13.816406 7.019531 -14.125 8.4375 -14.125 C 9.507812 -14.125 10.488281 -13.953125 11.375 -13.609375 C 12.269531 -13.265625 13.023438 -12.757812 13.640625 -12.09375 L 12.71875 -11.15625 C 11.613281 -12.25 10.207031 -12.796875 8.5 -12.796875 C 7.363281 -12.796875 6.335938 -12.546875 5.421875 -12.046875 C 4.515625 -11.546875 3.800781 -10.851562 3.28125 -9.96875 C 2.757812 -9.082031 2.5 -8.09375 2.5 -7 C 2.5 -5.90625 2.757812 -4.914062 3.28125 -4.03125 C 3.800781 -3.15625 4.515625 -2.460938 5.421875 -1.953125 C 6.328125 -1.453125 7.347656 -1.203125 8.484375 -1.203125 C 9.921875 -1.203125 11.140625 -1.5625 12.140625 -2.28125 Z M 12.140625 -7 "/></g></g></g></svg>